<?xml version="1.0" standalone="no"?>
<!DOCTYPE svg PUBLIC "-//W3C//DTD SVG 20010904//EN"
 "http://www.w3.org/TR/2001/REC-SVG-20010904/DTD/svg10.dtd">
<svg version="1.0" xmlns="http://www.w3.org/2000/svg"
 width="512.000000pt" height="512.000000pt" viewBox="0 0 512.000000 512.000000"
 preserveAspectRatio="xMidYMid meet">

<g transform="translate(0.000000,512.000000) scale(0.100000,-0.100000)"
fill="#000000" stroke="none">
<path d="M2460 4681 c-102 -33 -188 -107 -236 -201 -39 -77 -45 -199 -15 -285
25 -71 25 -75 6 -75 -8 0 -63 -16 -122 -36 -241 -81 -434 -203 -614 -391 -154
-161 -268 -350 -333 -553 -68 -208 -68 -212 -75 -705 -6 -436 -7 -451 -28
-495 -32 -65 -58 -91 -153 -152 -99 -63 -159 -127 -200 -212 -108 -230 -29
-477 188 -579 l67 -32 543 -3 542 -3 0 -37 c0 -107 64 -246 155 -337 208 -208
542 -208 750 0 91 91 155 230 155 337 l0 37 543 3 543 3 76 38 c316 156 296
610 -36 796 -70 39 -111 80 -140 141 -20 43 -21 63 -27 495 -5 373 -9 463 -24
525 -72 315 -195 541 -415 760 -184 184 -390 310 -618 375 -53 16 -99 30 -100
31 -2 1 6 32 18 68 34 98 26 208 -20 294 -38 72 -107 139 -177 172 -37 18 -69
24 -138 26 -49 2 -101 0 -115 -5z m163 -215 c104 -43 128 -175 47 -256 -66
-66 -156 -67 -221 -1 -124 123 13 325 174 257z m169 -542 c542 -103 950 -527
1033 -1074 11 -70 15 -195 15 -475 0 -405 4 -443 51 -538 45 -90 96 -144 199
-212 113 -74 152 -121 170 -210 23 -109 -34 -209 -133 -233 -66 -17 -3068 -17
-3134 0 -99 24 -156 124 -133 233 18 89 57 136 170 210 103 68 154 122 199
212 47 95 51 133 51 538 0 412 7 494 55 660 14 50 50 140 80 200 251 509 821
794 1377 689z m83 -3011 c-8 -53 -41 -125 -79 -170 -14 -16 -53 -45 -88 -64
-58 -31 -70 -34 -148 -34 -78 0 -90 3 -148 34 -95 51 -152 131 -167 234 l-7
47 322 0 322 0 -7 -47z"/>
</g>
</svg>
