<?xml version="1.0" encoding="UTF-8"?>
<!DOCTYPE svg PUBLIC "-//W3C//DTD SVG 1.1//EN" "http://www.w3.org/Graphics/SVG/1.1/DTD/svg11.dtd">
<svg xmlns="http://www.w3.org/2000/svg" version="1.1" width="800px" height="800px" style="shape-rendering:geometricPrecision; text-rendering:geometricPrecision; image-rendering:optimizeQuality; fill-rule:evenodd; clip-rule:evenodd" xmlns:xlink="http://www.w3.org/1999/xlink">
<g><path style="opacity:1" fill="#fefefe" d="M -0.5,-0.5 C 266.167,-0.5 532.833,-0.5 799.5,-0.5C 799.5,266.167 799.5,532.833 799.5,799.5C 532.833,799.5 266.167,799.5 -0.5,799.5C -0.5,532.833 -0.5,266.167 -0.5,-0.5 Z"/></g>
<g><path style="opacity:1" fill="#010101" d="M 391.5,32.5 C 425.961,31.6302 449.794,46.9635 463,78.5C 464.536,83.269 465.703,88.1023 466.5,93C 540.265,116.431 591.099,164.264 619,236.5C 623.915,250.16 627.582,264.16 630,278.5C 631.713,313.506 633.713,348.506 636,383.5C 640.951,444.312 656.951,501.978 684,556.5C 694.922,577.429 708.922,596.096 726,612.5C 734.903,626.722 734.569,640.722 725,654.5C 710.668,668.45 695.168,669.95 678.5,659C 651.876,632.361 630.709,601.861 615,567.5C 585.279,498.274 569.279,425.941 567,350.5C 566.667,334.833 566.333,319.167 566,303.5C 560.908,252.487 538.075,211.654 497.5,181C 443.222,145.139 386.222,140.139 326.5,166C 315.813,172.033 305.147,178.033 294.5,184C 274.701,187.523 261.201,180.023 254,161.5C 249.792,146.792 253.625,134.625 265.5,125C 286.465,110.685 309.132,99.8516 333.5,92.5C 338.945,59.055 358.279,39.055 391.5,32.5 Z"/></g>
<g><path style="opacity:1" fill="#010101" d="M 109.5,74.5 C 123.456,73.2315 134.956,77.8982 144,88.5C 332.296,299.798 520.963,510.798 710,721.5C 721.553,743.129 716.72,759.962 695.5,772C 683.209,776.589 671.876,774.922 661.5,767C 618.296,719.465 575.463,671.631 533,623.5C 533.921,682.191 508.754,725.358 457.5,753C 408.42,774.466 362.087,769.799 318.5,739C 294.76,720.195 278.76,696.195 270.5,667C 211.5,666.667 152.5,666.333 93.5,666C 71.4204,659.012 62.9204,644.179 68,621.5C 69.4131,618.339 71.0797,615.339 73,612.5C 100.396,584.405 120.729,551.739 134,514.5C 154.363,456.61 165.03,396.944 166,335.5C 174.392,310.592 190.892,302.758 215.5,312C 226.156,318.674 231.822,328.341 232.5,341C 230.888,413.644 217.054,483.811 191,551.5C 184.221,567.724 176.388,583.391 167.5,598.5C 281.833,599.833 396.167,599.833 510.5,598.5C 369.815,441.649 229.315,284.649 89,127.5C 76.8981,102.386 83.7314,84.7191 109.5,74.5 Z"/></g>
<g><path style="opacity:1" fill="#fcfcfc" d="M 342.5,666.5 C 380.506,666.167 418.506,666.5 456.5,667.5C 437.889,694.32 412.555,704.153 380.5,697C 363.729,691.801 351.063,681.635 342.5,666.5 Z"/></g>
</svg>
