<?xml version="1.0" standalone="no"?>
<!DOCTYPE svg PUBLIC "-//W3C//DTD SVG 20010904//EN"
 "http://www.w3.org/TR/2001/REC-SVG-20010904/DTD/svg10.dtd">
<svg version="1.0" xmlns="http://www.w3.org/2000/svg"
 width="512.000000pt" height="512.000000pt" viewBox="0 0 512.000000 512.000000"
 preserveAspectRatio="xMidYMid meet">

<g transform="translate(0.000000,512.000000) scale(0.100000,-0.100000)"
fill="#000000" stroke="none">
<path d="M2460 4685 c-113 -32 -210 -118 -251 -223 -32 -80 -32 -217 -2 -284
l22 -48 -42 -11 c-269 -71 -484 -194 -683 -393 -180 -181 -287 -351 -364 -585
-68 -202 -72 -245 -79 -731 -6 -424 -7 -436 -28 -476 -30 -56 -72 -96 -141
-135 -88 -50 -166 -135 -210 -226 -37 -77 -37 -79 -37 -203 0 -118 2 -128 29
-185 38 -77 114 -153 191 -191 l60 -29 546 -3 547 -3 7 -57 c28 -235 195 -419
424 -468 84 -17 139 -17 224 1 227 48 394 232 422 467 l7 57 547 3 546 3 60
29 c77 38 154 115 190 191 34 72 45 202 25 294 -28 124 -121 250 -235 316 -83
47 -110 72 -141 127 l-29 53 -6 435 c-5 394 -8 445 -28 543 -63 308 -193 550
-415 773 -199 199 -414 322 -683 393 l-42 11 22 48 c31 68 30 204 -3 287 -32
84 -123 173 -205 204 -78 29 -174 35 -245 16z m178 -235 c130 -79 74 -280 -78
-280 -85 0 -150 65 -150 150 0 54 27 102 72 130 20 12 51 20 78 20 27 0 58 -8
78 -20z m122 -525 c467 -76 858 -410 1010 -863 55 -166 62 -229 69 -702 7
-420 8 -437 30 -492 43 -110 127 -199 253 -271 111 -64 166 -200 123 -304 -21
-50 -42 -72 -90 -94 -38 -18 -107 -19 -1595 -19 -1488 0 -1557 1 -1595 19 -48
22 -69 44 -90 94 -43 104 12 240 123 304 126 72 210 161 253 271 22 55 23 72
30 492 7 475 14 536 70 704 105 314 325 574 619 730 104 55 268 111 381 130
114 19 294 19 409 1z m107 -3015 c-11 -95 -77 -183 -177 -236 -54 -29 -210
-27 -267 4 -95 50 -159 137 -170 232 l-6 50 313 0 313 0 -6 -50z"/>
</g>
</svg>
