<?xml version="1.0" encoding="UTF-8"?>
<!DOCTYPE svg PUBLIC "-//W3C//DTD SVG 1.1//EN" "http://www.w3.org/Graphics/SVG/1.1/DTD/svg11.dtd">
<svg xmlns="http://www.w3.org/2000/svg" version="1.1" width="200px" height="200px" style="shape-rendering:geometricPrecision; text-rendering:geometricPrecision; image-rendering:optimizeQuality; fill-rule:evenodd; clip-rule:evenodd" xmlns:xlink="http://www.w3.org/1999/xlink">
<g><path style="opacity:0.896" fill="#000000" d="M 51.5,53.5 C 55.1816,52.7253 57.6816,54.0586 59,57.5C 59.5,83.4979 59.6666,109.498 59.5,135.5C 88.5019,135.333 117.502,135.5 146.5,136C 150.5,139 150.5,142 146.5,145C 114.833,145.667 83.1667,145.667 51.5,145C 51,144.5 50.5,144 50,143.5C 49.3333,114.167 49.3333,84.8333 50,55.5C 50.7172,54.9558 51.2172,54.2891 51.5,53.5 Z"/></g>
<g><path style="opacity:0.883" fill="#000000" d="M 121.5,69.5 C 130.751,69.1822 139.917,69.5155 149,70.5C 149.667,79.8333 149.667,89.1667 149,98.5C 146.333,99.8333 143.667,99.8333 141,98.5C 139.81,94.6192 139.143,90.6192 139,86.5C 132.5,94.3333 126,102.167 119.5,110C 117.833,110.667 116.167,110.667 114.5,110C 108.675,107.255 103.008,104.255 97.5,101C 96.5,100.333 95.5,100.333 94.5,101C 86.8333,110.667 79.1667,120.333 71.5,130C 64.1388,130.115 62.3054,126.948 66,120.5C 74.5487,110.286 82.7154,99.7861 90.5,89C 92.8333,88.3333 95.1667,88.3333 97.5,89C 102.833,92 108.167,95 113.5,98C 114.784,98.6838 115.951,98.5171 117,97.5C 121.456,91.3751 126.289,85.5417 131.5,80C 127.767,79.9345 124.267,79.1011 121,77.5C 120.278,74.7395 120.445,72.0728 121.5,69.5 Z"/></g>
</svg>
