<?xml version="1.0" encoding="UTF-8"?>
<!DOCTYPE svg PUBLIC "-//W3C//DTD SVG 1.1//EN" "http://www.w3.org/Graphics/SVG/1.1/DTD/svg11.dtd">
<svg xmlns="http://www.w3.org/2000/svg" version="1.1" width="481px" height="519px" style="shape-rendering:geometricPrecision; text-rendering:geometricPrecision; image-rendering:optimizeQuality; fill-rule:evenodd; clip-rule:evenodd" xmlns:xlink="http://www.w3.org/1999/xlink">
<g><path style="opacity:1" fill="#3d87f3" d="M 205.5,132.5 C 206.5,132.5 207.5,132.5 208.5,132.5C 208.5,129.167 208.5,125.833 208.5,122.5C 208.333,110.162 208.5,97.8288 209,85.5C 215.473,78.5522 221.14,79.2189 226,87.5C 226.333,102.5 226.667,117.5 227,132.5C 235.279,131.676 243.612,131.343 252,131.5C 253.227,116.873 253.894,102.206 254,87.5C 258.872,79.3102 264.538,78.6435 271,85.5C 271.5,97.4954 271.667,109.495 271.5,121.5C 271.5,125.167 271.5,128.833 271.5,132.5C 278.833,132.5 286.167,132.5 293.5,132.5C 296.238,133.035 298.072,132.035 299,129.5C 299.333,115.167 299.667,100.833 300,86.5C 305.722,78.5414 311.388,78.5414 317,86.5C 317.333,101.833 317.667,117.167 318,132.5C 322.727,132.765 327.561,132.432 332.5,131.5C 340.626,132.958 345.959,137.625 348.5,145.5C 347.468,151.33 347.301,156.997 348,162.5C 348.561,161.978 349.228,161.645 350,161.5C 364.468,162.309 378.968,162.809 393.5,163C 398.155,165.897 399.655,170.063 398,175.5C 396.457,177.378 394.624,178.878 392.5,180C 377.504,180.5 362.504,180.667 347.5,180.5C 347.684,189.437 347.684,198.27 347.5,207C 362.5,207.333 377.5,207.667 392.5,208C 398.907,211.486 400.407,216.319 397,222.5C 395.681,224.487 393.848,225.654 391.5,226C 376.833,226.333 362.167,226.667 347.5,227C 347.5,235.667 347.5,244.333 347.5,253C 362.833,253.333 378.167,253.667 393.5,254C 398.667,257.765 399.833,262.599 397,268.5C 396.097,269.701 394.931,270.535 393.5,271C 378.156,271.167 362.822,271.667 347.5,272.5C 347.632,281.42 347.632,290.42 347.5,299.5C 362.837,299.333 378.17,299.5 393.5,300C 395.286,300.785 396.786,301.951 398,303.5C 400.006,309.732 398.172,314.232 392.5,317C 378.259,317.176 364.092,317.676 350,318.5C 349.586,318.043 349.086,317.709 348.5,317.5C 351.886,341.782 341.553,351.782 317.5,347.5C 317.667,362.837 317.5,378.17 317,393.5C 314.058,398.153 309.891,399.653 304.5,398C 302.274,396.773 300.774,394.939 300,392.5C 299.5,377.504 299.333,362.504 299.5,347.5C 290.515,347.623 281.515,347.623 272.5,347.5C 272.528,361.428 272.362,375.428 272,389.5C 270.145,397.679 265.312,400.179 257.5,397C 255.513,395.681 254.346,393.848 254,391.5C 253.5,376.837 253.333,362.17 253.5,347.5C 244.5,347.5 235.5,347.5 226.5,347.5C 226.667,362.17 226.5,376.837 226,391.5C 223.897,397.469 219.73,399.636 213.5,398C 209.426,396.184 207.426,393.018 207.5,388.5C 208.274,374.992 208.608,361.492 208.5,348C 199.075,347.733 189.742,347.566 180.5,347.5C 180.667,362.504 180.5,377.504 180,392.5C 177.367,397.732 173.201,399.565 167.5,398C 165.667,396.833 164.167,395.333 163,393.5C 162.5,378.17 162.333,362.837 162.5,347.5C 138.144,351.81 128.144,341.81 132.5,317.5C 130.453,317.511 128.453,317.844 126.5,318.5C 113.526,317.703 100.526,317.203 87.5,317C 83.0278,315.738 81.0278,312.738 81.5,308C 81.0956,304.066 82.7623,301.399 86.5,300C 101.83,299.5 117.163,299.333 132.5,299.5C 132.5,290.167 132.5,280.833 132.5,271.5C 117.163,271.667 101.83,271.5 86.5,271C 82.7623,269.601 81.0956,266.934 81.5,263C 81.4297,259.062 83.0963,256.062 86.5,254C 101.83,253.5 117.163,253.333 132.5,253.5C 132.5,244.5 132.5,235.5 132.5,226.5C 117.83,226.667 103.163,226.5 88.5,226C 81.8903,223.792 79.7236,219.292 82,212.5C 83.5429,210.622 85.3762,209.122 87.5,208C 102.496,207.5 117.496,207.333 132.5,207.5C 132.5,198.5 132.5,189.5 132.5,180.5C 117.496,180.667 102.496,180.5 87.5,180C 81.8275,177.232 79.9942,172.732 82,166.5C 83.1667,165.333 84.3333,164.167 85.5,163C 97.3554,162.782 109.189,162.282 121,161.5C 124.77,162.443 128.437,162.776 132,162.5C 131.997,154.968 132.664,147.301 134,139.5C 137.082,134.805 141.416,132.139 147,131.5C 152.1,132.409 157.1,132.742 162,132.5C 162.823,117.592 162.657,102.759 161.5,88C 167.637,78.6319 173.804,78.4652 180,87.5C 180.386,102.716 180.72,117.716 181,132.5C 189.112,131.319 197.279,131.319 205.5,132.5 Z M 157.5,157.5 C 212.5,157.5 267.5,157.5 322.5,157.5C 322.5,212.5 322.5,267.5 322.5,322.5C 267.5,322.5 212.5,322.5 157.5,322.5C 157.5,267.5 157.5,212.5 157.5,157.5 Z"/></g>
<g><path style="opacity:0.024" fill="#262626" d="M 208.5,122.5 C 208.5,125.833 208.5,129.167 208.5,132.5C 207.5,132.5 206.5,132.5 205.5,132.5C 206.989,129.296 207.989,125.963 208.5,122.5 Z"/></g>
<g><path style="opacity:0.009" fill="#191919" d="M 271.5,121.5 C 272.479,124.625 272.813,127.958 272.5,131.5C 279.687,131.175 286.687,131.509 293.5,132.5C 286.167,132.5 278.833,132.5 271.5,132.5C 271.5,128.833 271.5,125.167 271.5,121.5 Z"/></g>
<g><path style="opacity:1" fill="#3c87f4" d="M 185.5,177.5 C 217.294,177.353 249.294,177.52 281.5,178C 286.5,178.333 291.5,178.667 296.5,179C 297.931,179.465 299.097,180.299 300,181.5C 301.654,219.416 301.987,257.416 301,295.5C 300.215,297.286 299.049,298.786 297.5,300C 263.99,300.205 230.49,300.705 197,301.5C 192.159,301.073 187.326,300.573 182.5,300C 181.667,299.167 180.833,298.333 180,297.5C 178.346,259.584 178.013,221.584 179,183.5C 180.494,180.686 182.66,178.686 185.5,177.5 Z"/></g>
</svg>
