<?xml version="1.0" standalone="no"?>
<!DOCTYPE svg PUBLIC "-//W3C//DTD SVG 20010904//EN"
 "http://www.w3.org/TR/2001/REC-SVG-20010904/DTD/svg10.dtd">
<svg version="1.0" xmlns="http://www.w3.org/2000/svg"
 width="360.000000pt" height="360.000000pt" viewBox="0 0 360.000000 360.000000"
 preserveAspectRatio="xMidYMid meet">

<g transform="translate(0.000000,360.000000) scale(0.100000,-0.100000)"
fill="#000000" stroke="none">
<path d="M442 2903 c-7 -3 -19 -18 -27 -33 -13 -25 -15 -143 -15 -830 0 -825
0 -827 39 -857 12 -9 148 -12 559 -13 l544 0 -6 -77 c-18 -220 -25 -235 -146
-311 -52 -32 -86 -60 -88 -72 -3 -20 6 -20 498 -20 492 0 501 0 498 20 -2 12
-36 40 -88 72 -121 76 -128 91 -146 311 l-6 77 544 0 c411 1 547 4 559 13 39
30 39 32 39 857 0 849 0 846 -45 864 -20 7 -2694 7 -2713 -1z m2628 -838 l0
-725 -1270 0 -1270 0 0 725 0 725 1270 0 1270 0 0 -725z"/>
<path d="M1450 2505 c-22 -26 5 -44 73 -47 l61 -3 -124 -140 c-68 -77 -127
-142 -132 -143 -5 -2 -62 40 -128 92 -66 53 -126 99 -133 102 -17 6 -357 -314
-357 -336 0 -10 8 -21 17 -24 17 -7 21 -4 168 135 44 42 100 94 125 116 l45
41 125 -99 c68 -54 132 -99 141 -99 10 0 79 70 156 157 l138 158 5 -65 c4 -57
8 -65 25 -65 19 0 20 7 20 115 l0 115 -106 3 c-85 2 -108 0 -119 -13z"/>
<path d="M2450 2301 l0 -221 163 121 c89 67 166 126 171 130 14 12 -37 64
-107 110 -59 38 -120 62 -189 75 l-38 6 0 -221z"/>
<path d="M2275 2462 c-77 -26 -138 -66 -188 -122 -199 -221 -127 -566 143
-694 55 -26 80 -31 162 -34 79 -4 108 0 162 18 36 12 66 26 66 31 0 5 -54 93
-120 195 l-120 185 0 220 0 219 -27 0 c-16 -1 -51 -8 -78 -18z"/>
<path d="M2649 2149 c-96 -72 -173 -135 -172 -139 2 -5 42 -69 89 -142 48 -73
98 -150 111 -172 l25 -38 48 47 c96 95 146 226 137 364 -4 80 -36 193 -56 206
-5 2 -87 -54 -182 -126z"/>
<path d="M1506 2134 c-9 -23 -7 -497 2 -511 7 -11 97 -19 160 -14 9 1 12 62
12 271 l0 270 -84 0 c-67 0 -85 -3 -90 -16z"/>
<path d="M982 2048 c-14 -14 -17 -404 -3 -426 7 -11 81 -17 159 -13 10 1 12
49 10 224 l-3 222 -75 3 c-50 2 -79 -1 -88 -10z"/>
<path d="M1247 1963 c-4 -3 -7 -82 -7 -174 0 -135 3 -170 14 -176 8 -4 47 -6
88 -3 l73 5 3 164 c2 112 -1 168 -9 177 -12 15 -149 21 -162 7z"/>
<path d="M717 1873 c-4 -3 -7 -62 -7 -130 0 -141 -4 -135 89 -138 91 -2 91 -2
91 133 0 79 -4 122 -12 130 -13 13 -149 17 -161 5z"/>
</g>
</svg>
