<?xml version="1.0" standalone="no"?>
<!DOCTYPE svg PUBLIC "-//W3C//DTD SVG 20010904//EN"
 "http://www.w3.org/TR/2001/REC-SVG-20010904/DTD/svg10.dtd">
<svg version="1.0" xmlns="http://www.w3.org/2000/svg"
 width="481.000000pt" height="519.000000pt" viewBox="0 0 481.000000 519.000000"
 preserveAspectRatio="xMidYMid meet">

<g transform="translate(0.000000,519.000000) scale(0.100000,-0.100000)"
fill="#000000" stroke="none">
<path d="M2712 4016 c-84 -32 -128 -72 -242 -223 -33 -43 -89 -116 -126 -163
-36 -47 -90 -116 -119 -155 -30 -38 -74 -95 -97 -125 -57 -72 -266 -343 -298
-385 -14 -18 -68 -88 -121 -156 -52 -68 -98 -130 -103 -137 -4 -7 -11 -99 -16
-205 -5 -105 -14 -271 -21 -369 -17 -273 -28 -269 321 -123 58 24 150 61 205
83 228 92 193 63 375 302 25 32 78 100 118 152 128 165 216 278 262 338 103
134 194 251 265 340 187 237 224 313 211 434 -12 119 -74 209 -221 322 -122
94 -261 118 -393 70z m184 -107 c60 -11 77 -21 191 -112 75 -60 113 -127 113
-197 0 -73 -23 -124 -97 -218 l-18 -22 -46 32 c-87 62 -449 338 -449 343 0 12
84 112 112 134 17 14 54 30 82 37 28 7 51 13 52 13 0 1 27 -4 60 -10z m-212
-408 c94 -71 198 -150 231 -176 33 -25 66 -50 74 -54 18 -11 7 -29 -77 -135
-60 -77 -111 -141 -267 -344 -27 -36 -77 -99 -110 -141 -33 -42 -67 -86 -75
-97 -8 -12 -59 -79 -113 -149 -69 -88 -102 -123 -110 -117 -7 5 -84 64 -172
130 -88 66 -194 146 -236 179 l-76 58 41 55 c22 30 70 92 106 137 36 45 81
103 100 128 123 162 284 371 320 415 21 26 85 110 147 193 19 26 37 47 40 47
3 0 83 -58 177 -129z m-820 -1091 c72 -50 256 -192 256 -198 0 -8 -10 -12
-155 -70 -55 -22 -137 -56 -182 -76 -45 -19 -84 -32 -86 -28 -5 9 12 407 19
450 l5 32 61 -47 c33 -27 70 -55 82 -63z"/>
<path d="M1172 1644 c-15 -10 -22 -25 -22 -49 0 -70 -90 -65 1255 -65 1345 0
1255 -5 1255 65 0 70 90 65 -1255 65 -1079 0 -1213 -2 -1233 -16z"/>
</g>
</svg>
