<?xml version="1.0" standalone="no"?>
<!DOCTYPE svg PUBLIC "-//W3C//DTD SVG 20010904//EN"
 "http://www.w3.org/TR/2001/REC-SVG-20010904/DTD/svg10.dtd">
<svg version="1.0" xmlns="http://www.w3.org/2000/svg"
 width="500.000000pt" height="500.000000pt" viewBox="0 0 500.000000 500.000000"
 preserveAspectRatio="xMidYMid meet">

<g transform="translate(0.000000,500.000000) scale(0.100000,-0.100000)"
fill="#000000" stroke="none">
<path d="M2190 4764 c-308 -29 -559 -96 -805 -213 -618 -295 -1062 -835 -1230
-1495 -50 -199 -68 -343 -68 -556 0 -612 228 -1163 663 -1601 574 -578 1390
-796 2199 -588 364 94 734 308 1006 583 221 224 372 448 490 731 41 97 115
320 115 346 0 5 -155 9 -397 9 l-398 0 -53 -114 c-181 -385 -510 -675 -907
-799 -170 -53 -236 -62 -455 -62 -173 1 -220 4 -300 22 -326 73 -601 234 -823
482 -175 195 -294 440 -349 714 -31 158 -31 396 0 554 94 471 383 853 808
1067 204 103 375 145 619 153 145 4 188 2 294 -16 447 -76 834 -347 1057 -739
24 -42 44 -82 44 -89 0 -9 -38 -13 -148 -15 l-149 -3 156 -191 c575 -704 593
-726 606 -712 7 7 97 117 201 243 103 127 268 328 366 448 l178 217 -188 0
-189 0 -42 118 c-89 246 -237 506 -390 686 -95 111 -280 290 -374 360 -324
242 -703 397 -1087 446 -93 12 -379 20 -450 14z m350 -85 c571 -52 1119 -336
1482 -768 178 -213 321 -466 402 -711 l44 -135 131 -3 c72 -1 131 -5 131 -8 0
-12 -573 -703 -580 -699 -10 6 -564 684 -568 696 -2 5 48 9 122 9 94 0 126 3
126 13 0 22 -106 224 -163 309 -66 98 -193 244 -270 310 -204 175 -462 302
-725 359 -124 26 -390 36 -515 20 -682 -91 -1211 -584 -1359 -1265 -19 -86
-22 -132 -22 -306 0 -174 3 -220 22 -306 92 -423 331 -781 677 -1010 199 -133
440 -223 682 -255 126 -17 391 -6 518 21 264 56 510 176 710 346 150 128 302
327 391 510 l46 94 314 0 c263 0 314 -2 314 -14 0 -8 -16 -60 -36 -117 -202
-582 -671 -1070 -1246 -1298 -564 -223 -1164 -210 -1715 37 -227 101 -420 233
-609 415 -180 173 -301 329 -411 532 -184 341 -264 654 -265 1040 -1 426 108
807 334 1168 113 181 275 365 453 517 429 364 1022 551 1585 499z"/>
<path d="M2449 3468 c-181 -198 -298 -326 -818 -893 -110 -121 -201 -223 -201
-227 0 -4 193 -9 429 -10 l428 -3 -84 -150 c-47 -82 -164 -292 -260 -465 -97
-173 -178 -319 -181 -324 -10 -18 27 11 232 184 115 96 313 263 441 370 128
107 340 285 471 396 132 110 290 243 352 295 l112 94 -550 3 c-303 1 -550 4
-550 7 0 3 43 110 96 237 189 456 286 698 280 698 -2 0 -91 -95 -197 -212z
m-70 -240 c-11 -29 -68 -167 -125 -306 -57 -139 -104 -255 -104 -258 0 -2 223
-4 496 -4 430 0 495 -2 485 -14 -7 -8 -145 -126 -308 -263 -163 -136 -391
-328 -507 -427 -116 -98 -224 -187 -240 -199 l-30 -21 42 75 c22 41 108 196
191 344 l150 270 -405 3 c-223 1 -404 6 -402 11 2 4 140 158 308 342 168 183
339 370 380 416 41 45 78 82 82 83 4 0 -2 -24 -13 -52z"/>
</g>
</svg>
