<?xml version="1.0" standalone="no"?>
<!DOCTYPE svg PUBLIC "-//W3C//DTD SVG 20010904//EN"
 "http://www.w3.org/TR/2001/REC-SVG-20010904/DTD/svg10.dtd">
<svg version="1.0" xmlns="http://www.w3.org/2000/svg"
 width="256.000000pt" height="256.000000pt" viewBox="0 0 256.000000 256.000000"
 preserveAspectRatio="xMidYMid meet">

<g transform="translate(0.000000,256.000000) scale(0.100000,-0.100000)"
fill="#000000" stroke="none">
<path d="M971 2542 c-5 -10 -31 -101 -56 -203 -45 -180 -185 -721 -245 -949
-34 -130 -37 -165 -14 -174 9 -3 106 -6 216 -6 156 0 199 -3 195 -12 -2 -7
-78 -271 -168 -586 -167 -589 -170 -601 -126 -610 10 -2 44 39 100 120 46 68
303 444 570 837 411 602 485 716 476 732 -9 18 -25 19 -264 19 -167 0 -255 4
-255 10 0 11 123 197 377 571 77 114 143 214 146 223 3 8 -1 22 -9 31 -13 13
-76 15 -474 15 -435 0 -460 -1 -469 -18z m842 -59 c2 -5 -115 -183 -260 -397
-228 -338 -279 -423 -260 -438 1 -1 119 -5 263 -8 l261 -5 -215 -315 c-118
-173 -327 -480 -465 -683 -137 -202 -252 -365 -255 -363 -2 3 58 223 133 490
76 266 135 491 132 500 -6 14 -34 16 -217 16 -138 0 -210 4 -210 10 0 14 301
1183 307 1193 2 4 179 7 393 7 214 0 391 -3 393 -7z"/>
</g>
</svg>
