<?xml version="1.0" standalone="no"?>
<!DOCTYPE svg PUBLIC "-//W3C//DTD SVG 20010904//EN"
 "http://www.w3.org/TR/2001/REC-SVG-20010904/DTD/svg10.dtd">
<svg version="1.0" xmlns="http://www.w3.org/2000/svg"
 width="225.000000pt" height="225.000000pt" viewBox="0 0 225.000000 225.000000"
 preserveAspectRatio="xMidYMid meet">

<g transform="translate(0.000000,225.000000) scale(0.100000,-0.100000)"
fill="#000000" stroke="none">
<path d="M171 1847 c-43 -15 -71 -52 -78 -104 -8 -57 17 -100 73 -125 41 -17
50 -18 87 -6 108 34 116 190 12 234 -41 17 -49 17 -94 1z"/>
<path d="M721 1810 l-185 -5 -8 -31 c-4 -16 -4 -50 0 -75 l7 -44 125 -6 c69
-3 427 -5 796 -5 553 1 674 3 687 15 23 18 24 123 2 141 -13 10 -146 13 -628
14 -337 1 -695 -1 -796 -4z"/>
<path d="M160 1238 c-13 -7 -35 -29 -48 -48 -35 -52 -26 -113 22 -157 82 -76
206 -18 206 96 0 60 -49 111 -110 117 -26 3 -55 -1 -70 -8z"/>
<path d="M536 1194 c-18 -18 -22 -104 -6 -135 10 -19 30 -19 810 -19 780 0
800 0 810 19 5 11 10 42 10 69 0 89 69 82 -823 82 -701 0 -787 -2 -801 -16z"/>
<path d="M188 643 c-41 -6 -98 -75 -98 -119 0 -73 53 -127 125 -127 51 0 81
16 105 56 59 95 -19 206 -132 190z"/>
<path d="M730 600 l-194 -5 -9 -37 c-5 -22 -5 -54 0 -75 l9 -38 384 -8 c560
-11 1203 -5 1224 12 23 19 22 123 0 142 -14 11 -125 14 -618 14 -331 0 -689
-2 -796 -5z"/>
</g>
</svg>
