<?xml version="1.0" standalone="no"?>
<!DOCTYPE svg PUBLIC "-//W3C//DTD SVG 20010904//EN"
 "http://www.w3.org/TR/2001/REC-SVG-20010904/DTD/svg10.dtd">
<svg version="1.0" xmlns="http://www.w3.org/2000/svg"
 width="494.000000pt" height="505.000000pt" viewBox="0 0 494.000000 505.000000"
 preserveAspectRatio="xMidYMid meet">

<g transform="translate(0.000000,505.000000) scale(0.100000,-0.100000)"
fill="#000000" stroke="none">
<path d="M2270 4505 c-221 -40 -426 -150 -591 -317 -348 -351 -437 -903 -217
-1343 78 -155 159 -260 442 -576 221 -247 333 -401 430 -597 30 -59 56 -117
60 -128 14 -44 56 -65 107 -51 27 7 40 29 91 146 26 61 121 222 181 306 75
105 122 161 320 383 219 245 308 361 375 490 82 159 115 276 131 461 53 597
-348 1124 -933 1226 -107 18 -293 18 -396 0z m332 -526 c29 -6 91 -29 137 -51
155 -74 287 -240 321 -404 18 -85 8 -256 -18 -328 -71 -194 -227 -335 -428
-386 -138 -36 -274 -20 -412 46 -94 45 -211 158 -260 251 -211 400 74 879 525
882 45 1 106 -4 135 -10z"/>
<path d="M941 2247 c2 -2 216 -126 475 -275 471 -272 472 -272 518 -266 26 4
49 10 51 15 7 11 -85 120 -288 341 l-172 187 -294 0 c-162 1 -292 -1 -290 -2z"/>
<path d="M3443 2226 c-10 -13 -74 -83 -142 -156 -67 -72 -121 -134 -118 -137
10 -9 1067 181 1067 192 0 19 -74 83 -120 104 -42 19 -65 21 -357 21 l-311 0
-19 -24z"/>
<path d="M518 1738 c-76 -166 -137 -302 -135 -303 3 -3 978 170 997 176 8 3
-24 28 -80 61 -161 94 -639 368 -642 368 -2 0 -65 -136 -140 -302z"/>
<path d="M3643 1765 c-381 -67 -699 -125 -707 -128 -16 -7 -163 -226 -219
-328 l-37 -67 618 -356 617 -356 461 0 c318 0 471 4 494 11 36 13 63 62 53 99
-15 55 -563 1245 -575 1247 -7 0 -325 -54 -705 -122z"/>
<path d="M1010 1300 c-393 -70 -724 -129 -734 -131 -14 -3 -51 -74 -137 -264
-65 -143 -119 -270 -119 -283 0 -13 5 -32 11 -44 27 -50 -36 -48 1656 -48 993
0 1573 4 1568 9 -10 10 -93 59 -575 336 -146 84 -395 228 -555 320 -159 92
-315 182 -345 199 l-55 32 -715 -126z"/>
</g>
</svg>
