<?xml version="1.0" standalone="no"?>
<!DOCTYPE svg PUBLIC "-//W3C//DTD SVG 20010904//EN"
 "http://www.w3.org/TR/2001/REC-SVG-20010904/DTD/svg10.dtd">
<svg version="1.0" xmlns="http://www.w3.org/2000/svg"
 width="512.000000pt" height="512.000000pt" viewBox="0 0 512.000000 512.000000"
 preserveAspectRatio="xMidYMid meet">

<g transform="translate(0.000000,512.000000) scale(0.100000,-0.100000)"
fill="#000000" stroke="none">
<path d="M501 3185 c-177 -39 -347 -171 -429 -335 -127 -254 -82 -540 118
-740 251 -252 650 -252 900 -1 253 254 253 648 0 902 -155 155 -374 220 -589
174z"/>
<path d="M2421 3185 c-177 -39 -347 -171 -429 -335 -127 -254 -82 -540 118
-740 251 -252 650 -252 900 -1 253 254 253 648 0 902 -155 155 -374 220 -589
174z"/>
<path d="M4341 3185 c-177 -39 -347 -171 -429 -335 -127 -254 -82 -540 118
-740 251 -252 650 -252 900 -1 253 254 253 648 0 902 -155 155 -374 220 -589
174z"/>
</g>
</svg>
