<?xml version="1.0" standalone="no"?>
<!DOCTYPE svg PUBLIC "-//W3C//DTD SVG 20010904//EN"
 "http://www.w3.org/TR/2001/REC-SVG-20010904/DTD/svg10.dtd">
<svg version="1.0" xmlns="http://www.w3.org/2000/svg"
 width="480.000000pt" height="519.000000pt" viewBox="0 0 480.000000 519.000000"
 preserveAspectRatio="xMidYMid meet">

<g transform="translate(0.000000,519.000000) scale(0.100000,-0.100000)"
fill="#000000" stroke="none">
<path d="M2315 4368 c-32 -17 -85 -71 -103 -103 -15 -27 -17 -94 -20 -652 l-3
-623 -615 0 c-672 0 -641 3 -707 -59 -45 -41 -59 -78 -59 -147 1 -73 18 -112
67 -150 71 -54 63 -53 713 -54 l602 0 0 -590 c0 -372 4 -607 10 -638 21 -94
104 -162 200 -162 65 0 118 27 161 82 l34 42 3 633 2 632 624 3 623 3 49 30
c59 37 91 82 100 142 8 58 -8 113 -48 159 -64 73 -24 68 -718 74 l-625 5 -5
632 -5 631 -31 39 c-53 65 -88 83 -163 83 -36 0 -75 -6 -86 -12z"/>
</g>
</svg>
