<?xml version="1.0" standalone="no"?>
<!DOCTYPE svg PUBLIC "-//W3C//DTD SVG 20010904//EN"
 "http://www.w3.org/TR/2001/REC-SVG-20010904/DTD/svg10.dtd">
<svg version="1.0" xmlns="http://www.w3.org/2000/svg"
 width="500.000000pt" height="500.000000pt" viewBox="0 0 500.000000 500.000000"
 preserveAspectRatio="xMidYMid meet">

<g transform="translate(0.000000,500.000000) scale(0.100000,-0.100000)"
fill="#000000" stroke="none">
<path d="M2210 4514 c-927 -144 -1622 -862 -1731 -1788 -15 -127 -6 -452 15
-566 70 -371 198 -652 433 -945 314 -392 797 -663 1302 -730 139 -19 401 -19
544 0 920 121 1646 864 1746 1787 33 301 -5 640 -104 918 -69 193 -208 437
-343 603 -79 96 -248 258 -344 330 -281 210 -606 344 -946 391 -138 19 -450
19 -572 0z m470 -189 c329 -24 701 -177 981 -403 200 -162 400 -417 505 -648
331 -728 172 -1558 -405 -2106 -435 -414 -1042 -588 -1629 -467 -478 97 -902
387 -1172 799 -215 328 -322 748 -290 1140 30 377 169 723 406 1016 315 389
793 639 1287 673 119 8 163 7 317 -4z"/>
<path d="M2350 3923 c-281 -47 -525 -231 -645 -486 -175 -367 -62 -814 266
-1058 38 -29 69 -55 69 -58 0 -3 -39 -26 -86 -50 -219 -112 -420 -318 -516
-528 -72 -158 -102 -270 -123 -455 -7 -66 -10 -65 117 -60 l77 3 6 67 c15 167
75 348 151 459 95 137 255 278 399 351 254 127 583 132 842 12 321 -149 535
-444 574 -788 6 -53 13 -99 16 -102 9 -9 168 -11 182 -2 11 8 11 27 2 110 -49
418 -300 775 -669 952 -40 18 -71 37 -70 41 2 3 38 34 81 69 267 214 380 562
292 900 -77 299 -340 547 -646 610 -87 18 -249 25 -319 13z m289 -209 c143
-35 282 -125 366 -237 101 -133 138 -244 138 -407 0 -119 -18 -200 -65 -294
-81 -160 -217 -280 -387 -338 -90 -31 -315 -33 -401 -4 -211 72 -371 229 -436
430 -38 114 -40 286 -6 396 71 226 255 400 481 455 78 19 231 18 310 -1z"/>
</g>
</svg>
