<?xml version="1.0" encoding="UTF-8"?>
<!DOCTYPE svg PUBLIC "-//W3C//DTD SVG 1.1//EN" "http://www.w3.org/Graphics/SVG/1.1/DTD/svg11.dtd">
<svg xmlns="http://www.w3.org/2000/svg" version="1.1" width="250px" height="202px" style="shape-rendering:geometricPrecision; text-rendering:geometricPrecision; image-rendering:optimizeQuality; fill-rule:evenodd; clip-rule:evenodd" xmlns:xlink="http://www.w3.org/1999/xlink">
<g><path style="opacity:1" fill="#050505" d="M 117.5,11.5 C 178.154,12.0629 217.987,41.0629 237,98.5C 244.073,129.036 240.073,158.036 225,185.5C 223.883,187.124 222.383,188.124 220.5,188.5C 211.156,184.075 202.323,178.742 194,172.5C 193.217,168.771 194.717,166.437 198.5,165.5C 204.955,168.561 211.288,171.894 217.5,175.5C 218.086,175.291 218.586,174.957 219,174.5C 225.647,161.245 229.48,147.245 230.5,132.5C 222.826,132.666 215.159,132.5 207.5,132C 204.701,128.661 205.034,125.661 208.5,123C 215.826,122.5 223.159,122.334 230.5,122.5C 230.008,106.361 225.675,91.3605 217.5,77.5C 211.833,81 206.167,84.5 200.5,88C 194.498,88.9931 192.332,86.4931 194,80.5C 200.252,76.6245 206.419,72.6245 212.5,68.5C 203.755,55.9206 192.922,45.5873 180,37.5C 175.922,42.6441 172.589,48.3108 170,54.5C 167,58.5 164,58.5 161,54.5C 160.333,52.8333 160.333,51.1667 161,49.5C 164.167,43.8333 167.333,38.1667 170.5,32.5C 157.765,25.5654 144.098,21.8987 129.5,21.5C 129.666,29.1739 129.5,36.8406 129,44.5C 125.528,47.418 122.528,47.0846 120,43.5C 119.5,36.1742 119.334,28.8409 119.5,21.5C 103.358,21.993 88.3582,26.3263 74.5,34.5C 78.2524,40.3359 81.7524,46.3359 85,52.5C 84.6667,59.8333 81.6667,61.1667 76,56.5C 73.0013,50.4984 69.5013,44.8317 65.5,39.5C 52.9206,48.2448 42.5873,59.0781 34.5,72C 40.1374,76.1571 46.1374,79.8238 52.5,83C 54.9899,85.909 54.6565,88.5757 51.5,91C 49.8333,91.6667 48.1667,91.6667 46.5,91C 40.8333,87.8333 35.1667,84.6667 29.5,81.5C 22.876,94.326 19.2094,107.993 18.5,122.5C 25.8409,122.334 33.1742,122.5 40.5,123C 44.0846,125.528 44.418,128.528 41.5,132C 33.8406,132.5 26.1739,132.666 18.5,132.5C 19.5823,147.248 23.4157,161.248 30,174.5C 30.414,174.957 30.914,175.291 31.5,175.5C 37.7121,171.894 44.0454,168.561 50.5,165.5C 54.9868,166.641 56.3201,169.308 54.5,173.5C 45.7575,179.178 37.0908,184.178 28.5,188.5C 26.6171,188.124 25.1171,187.124 24,185.5C 0.158036,139.114 3.8247,95.1139 35,53.5C 56.9433,28.4455 84.4433,14.4455 117.5,11.5 Z"/></g>
<g><path style="opacity:1" fill="#050505" d="M 180.5,88.5 C 186,87.8314 188.167,90.1647 187,95.5C 171.584,105.125 156.084,114.625 140.5,124C 139.924,137.579 132.924,143.579 119.5,142C 111.982,138.132 108.815,131.965 110,123.5C 112.598,117.201 117.265,113.534 124,112.5C 128.203,113.579 132.37,114.412 136.5,115C 151.337,106.303 166.004,97.4701 180.5,88.5 Z"/></g>
<g><path style="opacity:1" fill="#0e0e0e" d="M 91.5,168.5 C 113.503,168.333 135.503,168.5 157.5,169C 160.418,172.472 160.085,175.472 156.5,178C 135.167,178.667 113.833,178.667 92.5,178C 88.9559,175.127 88.6225,171.96 91.5,168.5 Z"/></g>
</svg>
