<?xml version="1.0" standalone="no"?>
<!DOCTYPE svg PUBLIC "-//W3C//DTD SVG 20010904//EN"
 "http://www.w3.org/TR/2001/REC-SVG-20010904/DTD/svg10.dtd">
<svg version="1.0" xmlns="http://www.w3.org/2000/svg"
 width="512.000000pt" height="512.000000pt" viewBox="0 0 512.000000 512.000000"
 preserveAspectRatio="xMidYMid meet">

<g transform="translate(0.000000,512.000000) scale(0.100000,-0.100000)"
fill="#000000" stroke="none">
<path d="M2410 4984 c-241 -27 -382 -56 -555 -111 -806 -260 -1425 -928 -1618
-1748 -166 -703 -12 -1428 427 -2015 88 -118 281 -318 401 -415 342 -278 753
-457 1200 -522 167 -24 507 -24 665 0 261 40 482 108 705 216 266 129 455 262
661 466 119 118 254 274 254 294 0 9 -477 381 -488 381 -4 0 -28 -28 -52 -61
-60 -82 -206 -231 -302 -306 -221 -175 -488 -298 -772 -355 -97 -20 -141 -23
-341 -23 -211 1 -240 3 -356 28 -776 165 -1333 773 -1430 1561 -14 119 -7 387
14 501 52 277 151 518 305 735 85 120 299 336 417 418 232 164 486 267 765
313 168 28 459 23 624 -10 270 -55 560 -187 765 -349 l24 -19 -352 -303 c-193
-167 -350 -304 -349 -306 6 -5 1904 -464 1921 -464 12 0 15 8 12 33 -3 17 -23
471 -46 1007 -23 536 -45 979 -49 983 -4 5 -150 -114 -325 -262 -174 -149
-321 -271 -326 -271 -5 0 -42 27 -81 60 -320 269 -724 449 -1168 521 -119 19
-460 33 -550 23z"/>
</g>
</svg>
