<?xml version="1.0" standalone="no"?>
<!DOCTYPE svg PUBLIC "-//W3C//DTD SVG 20010904//EN"
 "http://www.w3.org/TR/2001/REC-SVG-20010904/DTD/svg10.dtd">
<svg version="1.0" xmlns="http://www.w3.org/2000/svg"
 width="512.000000pt" height="512.000000pt" viewBox="0 0 512.000000 512.000000"
 preserveAspectRatio="xMidYMid meet">

<g transform="translate(0.000000,512.000000) scale(0.100000,-0.100000)"
fill="#000000" stroke="none">
<path d="M885 4791 c-90 -22 -172 -90 -215 -176 l-25 -50 -3 -1985 c-3 -2211
-8 -2037 66 -2135 24 -32 59 -61 102 -84 l65 -36 1685 0 1685 0 63 34 c70 38
100 69 140 145 l27 51 3 1645 2 1645 -477 477 -478 478 -1305 -1 c-718 -1
-1318 -4 -1335 -8z m2315 -791 l0 -480 480 0 480 0 0 -1440 0 -1440 -1600 0
-1600 0 0 1920 0 1920 1120 0 1120 0 0 -480z"/>
<path d="M1375 3826 c-67 -29 -105 -106 -91 -181 9 -47 59 -102 104 -115 25
-8 257 -10 714 -8 665 3 677 3 704 24 53 39 69 71 69 134 0 63 -16 95 -69 134
-27 21 -38 21 -714 23 -556 2 -693 0 -717 -11z"/>
<path d="M1375 2866 c-67 -29 -105 -106 -91 -181 9 -47 59 -102 104 -115 25
-8 401 -10 1194 -8 1150 3 1157 3 1184 24 53 39 69 71 69 134 0 63 -16 95 -69
134 -27 21 -33 21 -1194 23 -955 2 -1173 0 -1197 -11z"/>
<path d="M1375 2226 c-67 -29 -105 -106 -91 -181 9 -47 59 -102 104 -115 25
-8 401 -10 1194 -8 1150 3 1157 3 1184 24 53 39 69 71 69 134 0 63 -16 95 -69
134 -27 21 -33 21 -1194 23 -955 2 -1173 0 -1197 -11z"/>
<path d="M1375 1586 c-67 -29 -105 -106 -91 -181 9 -47 59 -102 104 -115 25
-8 401 -10 1194 -8 1150 3 1157 3 1184 24 53 39 69 71 69 134 0 63 -16 95 -69
134 -27 21 -33 21 -1194 23 -955 2 -1173 0 -1197 -11z"/>
</g>
</svg>
