<?xml version="1.0" encoding="UTF-8"?>
<!DOCTYPE svg PUBLIC "-//W3C//DTD SVG 1.1//EN" "http://www.w3.org/Graphics/SVG/1.1/DTD/svg11.dtd">
<svg xmlns="http://www.w3.org/2000/svg" version="1.1" width="512px" height="512px" style="shape-rendering:geometricPrecision; text-rendering:geometricPrecision; image-rendering:optimizeQuality; fill-rule:evenodd; clip-rule:evenodd" xmlns:xlink="http://www.w3.org/1999/xlink">
<g><path style="opacity:0.959" fill="#000000" d="M 235.5,-0.5 C 248.833,-0.5 262.167,-0.5 275.5,-0.5C 297.984,4.14281 312.817,17.4761 320,39.5C 320.705,49.5464 321.872,59.3798 323.5,69C 329.056,71.0281 334.556,73.1948 340,75.5C 345.822,70.3464 351.655,65.1798 357.5,60C 374.175,49.7463 391.842,47.7463 410.5,54C 414.327,55.746 417.993,57.746 421.5,60C 430.637,68.1359 439.47,76.6359 448,85.5C 468.031,116.84 464.031,144.84 436,169.5C 435.333,170.833 435.333,172.167 436,173.5C 438.459,178.376 440.625,183.376 442.5,188.5C 459.011,187.233 474.344,190.733 488.5,199C 500.912,208.67 508.579,221.17 511.5,236.5C 511.5,249.167 511.5,261.833 511.5,274.5C 506.771,298.734 492.438,314.234 468.5,321C 459.611,321.835 450.778,322.668 442,323.5C 439.904,329.523 437.404,335.356 434.5,341C 444.286,348.776 451.786,358.276 457,369.5C 463.771,389.264 461.105,407.598 449,424.5C 440.833,432.667 432.667,440.833 424.5,449C 401.167,465.667 377.833,465.667 354.5,449C 349.956,444.12 345.122,439.62 340,435.5C 334.07,438.531 327.903,440.864 321.5,442.5C 325.643,477.949 310.976,500.949 277.5,511.5C 262.833,511.5 248.167,511.5 233.5,511.5C 210.296,506.13 195.796,491.797 190,468.5C 189.186,459.831 188.353,451.164 187.5,442.5C 181.753,440.362 176.086,438.029 170.5,435.5C 165.681,439.818 161.015,444.318 156.5,449C 133.685,465.168 110.685,465.502 87.5,450C 78.6667,441.167 69.8333,432.333 61,423.5C 51.6943,410.271 48.361,395.604 51,379.5C 54.8711,364.282 62.8711,351.615 75,341.5C 73.6872,336.504 72.0206,331.504 70,326.5C 69.5,325.5 69,324.5 68.5,323.5C 43.4074,325.763 23.2408,317.097 8,297.5C 4.05686,290.813 1.22353,283.813 -0.5,276.5C -0.5,262.5 -0.5,248.5 -0.5,234.5C 4.59119,212.57 17.9245,198.07 39.5,191C 49.1371,189.973 58.8038,189.14 68.5,188.5C 70.6949,182.61 73.0283,176.777 75.5,171C 71.7138,166.211 67.5471,161.711 63,157.5C 47.1668,136.01 45.8335,113.677 59,90.5C 67.8029,80.6963 76.9695,71.1963 86.5,62C 106.179,48.6482 126.846,46.9815 148.5,57C 156.478,62.5741 163.978,68.7408 171,75.5C 176.444,73.1948 181.944,71.0281 187.5,69C 188.16,58.8213 189.327,48.6546 191,38.5C 198.582,17.0764 213.416,4.0764 235.5,-0.5 Z M 242.5,23.5 C 253.216,23.1557 263.882,23.6557 274.5,25C 285.667,28.1667 292.833,35.3333 296,46.5C 297.194,58.1252 297.861,69.7919 298,81.5C 298.667,82.8333 299.333,84.1667 300,85.5C 312.299,90.5635 324.466,96.0635 336.5,102C 340.833,104 345.167,104 349.5,102C 355.833,95.6667 362.167,89.3333 368.5,83C 382.5,73 396.5,73 410.5,83C 417.698,89.8638 424.532,97.0305 431,104.5C 438.333,115.833 438.333,127.167 431,138.5C 424.333,145.167 417.667,151.833 411,158.5C 407.342,163.44 406.675,168.774 409,174.5C 414.779,185.838 419.779,197.505 424,209.5C 425.579,211.041 427.413,212.208 429.5,213C 476.463,207.356 495.296,227.856 486,274.5C 482.401,286.433 474.568,293.933 462.5,297C 452.167,297.333 441.833,297.667 431.5,298C 427.157,299.01 423.99,301.51 422,305.5C 418.438,317.29 413.772,328.623 408,339.5C 407.183,342.964 407.517,346.298 409,349.5C 415.635,357.136 422.635,364.47 430,371.5C 438.73,384.35 438.397,397.017 429,409.5C 421.47,417.365 413.636,424.865 405.5,432C 394.833,438 384.167,438 373.5,432C 365.167,424.333 356.833,416.667 348.5,409C 344.833,408.333 341.167,408.333 337.5,409C 326.162,414.779 314.495,419.779 302.5,424C 300.622,425.543 299.122,427.376 298,429.5C 304.336,475.831 284.503,494.998 238.5,487C 225.667,483.5 217.5,475.333 214,462.5C 213.667,452.167 213.333,441.833 213,431.5C 211.932,426.765 209.099,423.598 204.5,422C 192.052,417.859 179.886,413.026 168,407.5C 165.416,408.104 162.916,408.937 160.5,410C 154.5,416 148.5,422 142.5,428C 129.626,438.444 116.293,439.111 102.5,430C 95,422.5 87.5,415 80,407.5C 72.6667,395.833 72.6667,384.167 80,372.5C 86.6667,365.833 93.3333,359.167 100,352.5C 103.6,347.896 104.267,342.896 102,337.5C 96.839,327.512 92.5057,317.178 89,306.5C 87.4019,301.901 84.2353,299.068 79.5,298C 36.2401,304.073 17.7401,285.573 24,242.5C 25.4821,228.351 32.9821,219.184 46.5,215C 58.1187,213.779 69.7854,213.112 81.5,213C 84.7717,211.307 87.2717,208.807 89,205.5C 92.3557,194.432 96.689,183.766 102,173.5C 104.19,168.972 103.856,164.639 101,160.5C 91.8861,152.392 83.8861,143.392 77,133.5C 72.8567,121.89 74.5233,111.223 82,101.5C 88.5,95 95,88.5 101.5,82C 113.545,73.4595 125.878,72.7929 138.5,80C 145.167,86.6667 151.833,93.3333 158.5,100C 163.104,103.6 168.104,104.267 173.5,102C 183.766,96.689 194.432,92.3557 205.5,89C 209.085,87.0842 211.585,84.2509 213,80.5C 213.333,70.1667 213.667,59.8333 214,49.5C 217.694,34.2997 227.194,25.633 242.5,23.5 Z M 245.5,192.5 C 284.248,190.435 308.415,208.102 318,245.5C 320.541,283.274 303.708,307.441 267.5,318C 235.196,321.933 211.696,309.433 197,280.5C 186.09,248.289 194.257,222.123 221.5,202C 229.063,197.373 237.063,194.206 245.5,192.5 Z"/></g>
<g><path style="opacity:0.957" fill="#000000" d="M 245.5,167.5 C 290.731,165.945 321.898,185.945 339,227.5C 350.442,270.853 337.942,305.353 301.5,331C 272.186,346.893 242.519,347.56 212.5,333C 174.615,308.38 160.782,273.88 171,229.5C 183.89,194.327 208.723,173.66 245.5,167.5 Z M 245.5,192.5 C 237.063,194.206 229.063,197.373 221.5,202C 194.257,222.123 186.09,248.289 197,280.5C 211.696,309.433 235.196,321.933 267.5,318C 303.708,307.441 320.541,283.274 318,245.5C 308.415,208.102 284.248,190.435 245.5,192.5 Z"/></g>
</svg>
