<?xml version="1.0" standalone="no"?>
<!DOCTYPE svg PUBLIC "-//W3C//DTD SVG 20010904//EN"
 "http://www.w3.org/TR/2001/REC-SVG-20010904/DTD/svg10.dtd">
<svg version="1.0" xmlns="http://www.w3.org/2000/svg"
 width="200.000000pt" height="200.000000pt" viewBox="0 0 200.000000 200.000000"
 preserveAspectRatio="xMidYMid meet">

<g transform="translate(0.000000,200.000000) scale(0.100000,-0.100000)"
fill="#000000" stroke="none">
<path d="M1142 1844 c-52 -31 -84 -90 -84 -154 0 -54 12 -82 54 -127 l30 -31
-49 -149 c-46 -136 -52 -148 -72 -145 -39 6 -119 -19 -161 -49 -22 -16 -42
-29 -44 -29 -3 0 -81 48 -175 106 l-171 106 0 40 c0 87 -58 148 -141 148 -111
0 -178 -105 -130 -204 39 -79 135 -107 207 -59 22 14 31 10 196 -92 95 -59
174 -108 176 -110 1 -1 -3 -24 -9 -52 -9 -40 -9 -59 4 -101 l15 -52 -159 -116
-159 -115 -55 27 c-47 22 -64 26 -108 21 -203 -25 -243 -303 -55 -382 154 -64
312 83 266 247 -8 25 0 32 152 143 l160 116 37 -26 c21 -14 55 -28 76 -32 20
-3 41 -11 44 -17 4 -6 17 -89 28 -185 l21 -175 -43 -41 c-41 -39 -43 -45 -43
-98 0 -45 5 -61 26 -87 52 -61 119 -76 184 -41 101 53 96 208 -8 256 -20 10
-38 19 -40 20 -4 3 -42 308 -42 341 0 25 5 33 25 38 13 3 43 24 65 45 l41 39
136 -63 136 -63 2 -53 c2 -64 21 -105 69 -147 129 -113 325 -22 326 151 1 172
-208 261 -334 142 -26 -24 -32 -25 -55 -15 -14 6 -76 34 -137 62 l-111 51 0
61 c1 77 -29 144 -83 187 l-38 31 50 149 50 149 31 0 c77 0 158 71 172 151 27
149 -141 262 -273 183z m142 -56 c80 -36 75 -156 -8 -196 -66 -33 -146 22
-146 100 0 32 7 47 34 74 37 37 74 44 120 22z m-905 -324 c41 -53 13 -114 -52
-114 -42 0 -70 29 -70 72 0 64 83 92 122 42z m718 -332 c66 -47 83 -162 35
-229 -47 -66 -162 -83 -229 -35 -92 65 -80 225 19 276 46 23 134 17 175 -12z
m628 -326 c99 -42 98 -184 -2 -228 -86 -38 -173 17 -173 111 0 53 17 84 64
112 37 23 65 24 111 5z m-1351 -180 c51 -21 76 -60 76 -118 0 -43 -5 -55 -33
-83 -61 -61 -154 -53 -197 17 -44 72 -5 170 75 191 34 8 45 7 79 -7z m760
-317 c19 -15 26 -30 26 -54 0 -36 -36 -75 -70 -75 -34 0 -70 39 -70 75 0 36
36 75 70 75 10 0 29 -9 44 -21z"/>
</g>
</svg>
