<?xml version="1.0" encoding="UTF-8"?>
<!DOCTYPE svg PUBLIC "-//W3C//DTD SVG 1.1//EN" "http://www.w3.org/Graphics/SVG/1.1/DTD/svg11.dtd">
<svg xmlns="http://www.w3.org/2000/svg" version="1.1" width="768px" height="768px" style="shape-rendering:geometricPrecision; text-rendering:geometricPrecision; image-rendering:optimizeQuality; fill-rule:evenodd; clip-rule:evenodd" xmlns:xlink="http://www.w3.org/1999/xlink">
<g><path style="opacity:0.972" fill="#007f00" d="M 361.5,78.5 C 481.01,74.3383 574.51,121.005 642,218.5C 691.108,298.596 702.775,383.929 677,474.5C 647.393,564.542 589.226,628.709 502.5,667C 410.346,702.774 320.679,697.441 233.5,651C 141.797,595.848 90.2975,514.682 79,407.5C 73.6643,304.714 109.164,219.214 185.5,151C 236.638,108.781 295.304,84.6148 361.5,78.5 Z M 366.5,112.5 C 467.145,109.578 547.312,148.244 607,228.5C 659.985,308.695 669.985,394.028 637,484.5C 605.472,559.028 551.972,610.862 476.5,640C 394.805,667.589 316.805,659.589 242.5,616C 153.896,557.305 110.729,474.471 113,367.5C 120.725,279.173 160.559,209.673 232.5,159C 273.285,132.239 317.952,116.739 366.5,112.5 Z"/></g>
<g><path style="opacity:0.969" fill="#008000" d="M 514.5,271.5 C 523.078,278.574 531.245,286.24 539,294.5C 539.667,295.167 539.667,295.833 539,296.5C 471.986,363.68 404.82,430.68 337.5,497.5C 296.68,457.18 256.014,416.68 215.5,376C 223.5,368 231.5,360 239.5,352C 240.167,351.333 240.833,351.333 241.5,352C 272.986,384.653 304.986,416.819 337.5,448.5C 396.854,389.812 455.854,330.812 514.5,271.5 Z"/></g>
</svg>
