<?xml version="1.0" encoding="UTF-8"?>
<!DOCTYPE svg PUBLIC "-//W3C//DTD SVG 1.1//EN" "http://www.w3.org/Graphics/SVG/1.1/DTD/svg11.dtd">
<svg xmlns="http://www.w3.org/2000/svg" version="1.1" width="192px" height="192px" style="shape-rendering:geometricPrecision; text-rendering:geometricPrecision; image-rendering:optimizeQuality; fill-rule:evenodd; clip-rule:evenodd" xmlns:xlink="http://www.w3.org/1999/xlink">
<g><path style="opacity:1" fill="#fdfdfd" d="M -0.5,-0.5 C 63.5,-0.5 127.5,-0.5 191.5,-0.5C 191.5,63.5 191.5,127.5 191.5,191.5C 127.5,191.5 63.5,191.5 -0.5,191.5C -0.5,127.5 -0.5,63.5 -0.5,-0.5 Z"/></g>
<g><path style="opacity:1" fill="#333333" d="M 169.5,73.5 C 169.41,76.1522 170.076,78.4855 171.5,80.5C 176.49,120.362 161.157,149.195 125.5,167C 85.5439,181.089 53.3773,170.923 29,136.5C 20.8728,122.478 17.5395,107.478 19,91.5C 22.2935,88.6888 25.2935,89.0221 28,92.5C 29.5316,126.092 46.0316,148.592 77.5,160C 87.8142,161.762 98.1476,161.929 108.5,160.5C 111.152,160.59 113.485,159.924 115.5,158.5C 141.776,149.388 156.943,131.055 161,103.5C 162.89,68.7748 147.724,44.9415 115.5,32C 110.46,31.3222 105.46,30.4889 100.5,29.5C 100.666,38.1731 100.5,46.8397 100,55.5C 96.714,59.4851 93.3807,59.4851 90,55.5C 89.3333,43.8333 89.3333,32.1667 90,20.5C 91.9857,18.2585 94.4857,17.2585 97.5,17.5C 133.536,20.8866 157.536,39.5532 169.5,73.5 Z"/></g>
<g><path style="opacity:1" fill="#323232" d="M 27.5,37.5 C 30.7935,37.259 33.7935,38.0924 36.5,40C 59.695,55.3581 81.5284,72.5248 102,91.5C 103.167,99.6667 99.6667,103.167 91.5,102C 69.4717,84.6458 48.6383,65.8125 29,45.5C 26.5709,43.1301 26.0709,40.4634 27.5,37.5 Z"/></g>
<g><path style="opacity:1" fill="#838383" d="M 169.5,73.5 C 170.924,75.5145 171.59,77.8478 171.5,80.5C 170.076,78.4855 169.41,76.1522 169.5,73.5 Z"/></g>
<g><path style="opacity:1" fill="#9a9a9a" d="M 115.5,158.5 C 113.485,159.924 111.152,160.59 108.5,160.5C 110.515,159.076 112.848,158.41 115.5,158.5 Z"/></g>
</svg>
