<?xml version="1.0" standalone="no"?>
<!DOCTYPE svg PUBLIC "-//W3C//DTD SVG 20010904//EN"
 "http://www.w3.org/TR/2001/REC-SVG-20010904/DTD/svg10.dtd">
<svg version="1.0" xmlns="http://www.w3.org/2000/svg"
 width="512.000000pt" height="512.000000pt" viewBox="0 0 512.000000 512.000000"
 preserveAspectRatio="xMidYMid meet">

<g transform="translate(0.000000,512.000000) scale(0.100000,-0.100000)"
fill="#000000" stroke="none">
<path d="M3115 5010 c-271 -24 -521 -140 -712 -328 -84 -82 -176 -199 -168
-212 3 -4 33 -26 68 -48 l64 -40 43 60 c60 81 178 191 269 249 148 95 306 146
487 156 411 22 782 -197 965 -572 61 -126 89 -237 96 -387 18 -374 -147 -684
-485 -913 -82 -55 -100 -71 -85 -76 10 -4 90 -30 178 -58 533 -170 953 -547
1055 -945 19 -74 20 -111 20 -528 l0 -448 -460 0 -460 0 0 -80 0 -80 545 0
545 0 0 509 c0 552 -4 607 -56 753 -107 301 -370 592 -711 788 -90 52 -213
112 -288 140 -26 10 -28 13 -13 21 10 5 50 47 89 92 356 411 393 989 92 1439
-62 93 -198 231 -293 297 -228 160 -511 236 -785 211z"/>
<path d="M1682 4245 c-148 -27 -310 -93 -437 -178 -138 -92 -302 -281 -378
-432 -135 -271 -153 -618 -47 -903 70 -188 198 -362 356 -488 47 -37 83 -68
82 -70 -2 -2 -46 -19 -98 -39 -474 -181 -907 -547 -1049 -890 -67 -160 -65
-140 -69 -713 l-3 -522 1846 0 1846 0 -3 523 c-4 501 -5 525 -26 601 -24 87
-91 234 -144 317 -103 161 -280 335 -473 464 -122 82 -355 198 -484 241 l-84
28 33 25 c290 221 451 520 467 866 14 318 -94 606 -311 833 -173 180 -386 296
-624 337 -103 18 -300 18 -400 0z m438 -181 c175 -44 325 -131 451 -261 128
-132 205 -266 251 -434 32 -119 32 -366 0 -483 -49 -178 -170 -372 -300 -482
-36 -31 -140 -106 -231 -167 l-166 -111 95 -28 c406 -122 571 -191 757 -316
287 -193 467 -410 556 -667 20 -56 21 -87 24 -498 l4 -437 -1675 0 -1676 0 0
413 c0 386 1 417 21 487 68 250 303 518 631 722 145 90 318 166 563 246 l235
77 -157 100 c-86 55 -189 126 -229 157 -175 138 -308 366 -344 590 -20 120 -8
312 24 422 76 255 255 472 486 590 220 113 443 139 680 80z"/>
</g>
</svg>
