<?xml version="1.0" standalone="no"?>
<!DOCTYPE svg PUBLIC "-//W3C//DTD SVG 20010904//EN"
 "http://www.w3.org/TR/2001/REC-SVG-20010904/DTD/svg10.dtd">
<svg version="1.0" xmlns="http://www.w3.org/2000/svg"
 width="256.000000pt" height="256.000000pt" viewBox="0 0 256.000000 256.000000"
 preserveAspectRatio="xMidYMid meet">

<g transform="translate(0.000000,256.000000) scale(0.100000,-0.100000)"
fill="#000000" stroke="none">
<path d="M1131 2504 c-175 -37 -345 -164 -438 -326 -75 -129 -102 -320 -69
-472 30 -131 85 -227 191 -332 l93 -92 -70 -26 c-164 -60 -345 -181 -465 -310
-80 -86 -129 -165 -160 -255 -21 -63 -22 -82 -23 -378 l0 -313 1090 0 1090 0
0 313 c0 348 -2 366 -67 489 -108 208 -330 378 -625 481 -13 5 3 25 71 94 149
149 209 304 198 512 -12 251 -151 457 -382 567 -127 61 -292 79 -434 48z m334
-95 c39 -13 104 -46 145 -74 271 -184 339 -546 154 -817 -51 -75 -99 -118
-221 -200 l-82 -54 136 -43 c217 -68 358 -146 490 -274 79 -76 142 -165 176
-249 20 -49 22 -74 25 -330 l3 -278 -1010 0 -1011 0 0 255 c0 232 2 261 21
317 75 224 345 444 679 553 63 21 119 41 123 45 5 4 -29 31 -75 60 -120 76
-171 122 -226 204 -70 105 -97 195 -97 326 0 136 25 220 98 327 86 126 216
216 360 249 86 19 223 12 312 -17z"/>
</g>
</svg>
