<?xml version="1.0" standalone="no"?>
<!DOCTYPE svg PUBLIC "-//W3C//DTD SVG 20010904//EN"
 "http://www.w3.org/TR/2001/REC-SVG-20010904/DTD/svg10.dtd">
<svg version="1.0" xmlns="http://www.w3.org/2000/svg"
 width="490.000000pt" height="490.000000pt" viewBox="0 0 490.000000 490.000000"
 preserveAspectRatio="xMidYMid meet">

<g transform="translate(0.000000,490.000000) scale(0.100000,-0.100000)"
fill="#000000" stroke="none">
<path d="M2179 3290 c-164 -19 -411 -83 -574 -147 -113 -44 -273 -128 -369
-192 -90 -61 -277 -214 -333 -272 -70 -75 -163 -193 -169 -217 -18 -67 255
-344 501 -509 538 -361 1284 -452 1932 -237 384 127 716 352 941 638 34 43 62
87 62 97 0 25 -107 158 -206 255 -260 257 -581 434 -960 529 -192 48 -342 65
-567 64 -106 -1 -222 -5 -258 -9z m387 -199 c228 -43 426 -216 506 -441 19
-55 23 -85 23 -195 0 -157 -22 -237 -95 -349 -189 -289 -540 -384 -848 -230
-305 153 -438 542 -291 850 64 135 169 239 314 309 121 60 263 80 391 56z"/>
<path d="M2339 2777 c-88 -33 -165 -104 -202 -186 -31 -70 -35 -190 -7 -263
59 -158 229 -245 402 -204 81 19 132 49 181 107 113 132 100 350 -29 469 -71
65 -117 83 -219 87 -59 2 -103 -1 -126 -10z"/>
</g>
</svg>
