<?xml version="1.0" standalone="no"?>
<!DOCTYPE svg PUBLIC "-//W3C//DTD SVG 20010904//EN"
 "http://www.w3.org/TR/2001/REC-SVG-20010904/DTD/svg10.dtd">
<svg version="1.0" xmlns="http://www.w3.org/2000/svg"
 width="500.000000pt" height="500.000000pt" viewBox="0 0 500.000000 500.000000"
 preserveAspectRatio="xMidYMid meet">

<g transform="translate(0.000000,500.000000) scale(0.100000,-0.100000)"
fill="#000000" stroke="none">
<path d="M1992 4157 c-7 -7 -13 -66 -14 -133 l-3 -119 -105 -3 -105 -3 -137
-136 -137 -137 -3 -106 -3 -105 -122 -3 c-132 -3 -155 -12 -133 -51 10 -20 20
-21 135 -21 l125 0 0 -85 0 -85 -125 0 c-115 0 -125 -1 -135 -21 -22 -39 1
-48 133 -51 l122 -3 3 -82 3 -83 -120 0 c-95 0 -123 -3 -135 -16 -20 -19 -20
-29 0 -48 12 -13 40 -16 135 -16 l120 0 -3 -82 -3 -83 -122 -3 c-132 -3 -155
-12 -133 -51 10 -20 20 -21 135 -21 l125 0 0 -85 0 -85 -125 0 c-115 0 -125
-1 -135 -21 -22 -39 1 -48 133 -51 l122 -3 5 -107 5 -106 138 -136 138 -135
102 -3 102 -3 3 -122 c3 -132 12 -155 51 -133 20 10 21 20 21 135 l0 125 85 0
85 0 0 -125 c0 -115 1 -125 21 -135 39 -22 48 1 51 133 l3 122 83 3 82 3 0
-120 c0 -95 3 -123 16 -135 19 -20 29 -20 48 0 13 12 16 40 16 135 l0 120 83
-3 82 -3 3 -122 c3 -132 12 -155 51 -133 20 10 21 20 21 135 l0 125 85 0 85 0
0 -125 c0 -115 1 -125 21 -135 39 -22 48 1 51 133 l3 122 103 3 104 3 136 136
137 136 5 106 5 106 120 3 c97 2 122 6 132 19 9 11 9 21 2 34 -9 17 -23 19
-134 19 l-125 0 0 85 0 84 128 3 127 3 0 30 0 30 -125 5 -125 5 -3 83 -3 82
120 0 c95 0 123 3 135 16 20 19 20 29 0 48 -12 13 -40 16 -135 16 l-119 0 0
85 0 85 125 0 c109 0 125 2 134 18 6 11 6 24 0 35 -9 15 -27 17 -134 17 l-125
0 0 85 0 85 125 0 c111 0 125 2 134 19 7 13 7 23 -2 34 -10 13 -35 17 -132 19
l-120 3 -3 105 -3 106 -137 137 -137 136 -105 3 -105 3 -3 122 c-3 132 -12
155 -51 133 -20 -10 -21 -20 -21 -135 l0 -125 -85 0 -85 0 0 125 c0 115 -1
125 -21 135 -39 22 -48 -1 -51 -133 l-3 -122 -82 -3 -83 -3 0 120 c0 95 -3
123 -16 135 -8 9 -19 16 -24 16 -5 0 -16 -7 -24 -16 -13 -12 -16 -40 -16 -135
l0 -120 -82 3 -83 3 -5 124 c-4 101 -8 126 -22 134 -12 8 -21 7 -32 -2 -13
-11 -16 -36 -16 -137 l0 -124 -85 0 -85 0 0 125 c0 113 -2 125 -19 135 -25 13
-26 13 -39 -3z m1325 -449 l123 -123 0 -695 0 -695 -122 -122 -123 -123 -695
0 -695 0 -122 122 -123 123 0 695 0 695 122 122 123 123 695 0 695 0 122 -122z"/>
<path d="M1877 3512 l-57 -58 0 -564 0 -564 57 -58 57 -58 566 0 566 0 57 58
57 58 0 564 0 564 -57 58 -57 58 -566 0 -566 0 -57 -58z m1191 -55 l42 -43 0
-524 0 -524 -37 -38 -37 -38 -535 0 -535 0 -38 37 -38 37 0 530 0 529 40 39
41 38 527 0 528 0 42 -43z"/>
<path d="M2063 3354 c-3 -9 -2 -24 4 -33 9 -14 33 -16 159 -16 l149 0 0 30 0
30 -153 3 c-134 2 -153 1 -159 -14z"/>
<path d="M2494 3356 c-14 -37 0 -51 50 -51 52 0 75 18 63 49 -8 22 -105 23
-113 2z"/>
<path d="M2477 3186 c-53 -19 -113 -61 -133 -91 -11 -17 -25 -25 -46 -25 -46
0 -97 -29 -125 -71 -14 -21 -33 -41 -43 -44 -31 -10 -88 -82 -100 -126 -25
-91 21 -192 103 -230 39 -17 69 -19 375 -19 312 0 335 1 371 20 114 58 132
198 37 286 -31 28 -48 54 -56 85 -37 137 -136 219 -275 226 -44 2 -84 -2 -108
-11z m209 -91 c58 -34 92 -87 105 -162 10 -54 14 -63 40 -74 87 -35 94 -156
12 -198 -15 -7 -124 -11 -333 -11 -268 0 -317 2 -346 16 -43 21 -64 59 -64
117 0 53 26 91 76 112 21 9 40 27 50 49 20 40 61 61 100 52 23 -6 33 1 78 49
31 34 67 62 91 71 56 20 135 12 191 -21z"/>
</g>
</svg>
